<?xml version="1.0" encoding="utf-8"?>
<!-- Generator: Adobe Illustrator 18.1.1, SVG Export Plug-In . SVG Version: 6.00 Build 0)  -->
<!DOCTYPE svg PUBLIC "-//W3C//DTD SVG 1.1//EN" "http://www.w3.org/Graphics/SVG/1.1/DTD/svg11.dtd">
<svg version="1.1" id="Layer_1" xmlns="http://www.w3.org/2000/svg" xmlns:xlink="http://www.w3.org/1999/xlink" x="0px" y="0px"
	 width="66.6px" height="50px" viewBox="151.8 -19 66.6 50" enable-background="new 151.8 -19 66.6 50" xml:space="preserve">
<g>
	
		<rect x="157" y="6.4" transform="matrix(0.7071 0.7071 -0.7071 0.7071 60.693 -113.3927)" fill="#E6E7E8" width="20.4" height="20.4"/>
	
		<rect x="193.8" y="6.3" transform="matrix(0.7071 0.7071 -0.7071 0.7071 71.4482 -139.4016)" fill="#E6E7E8" width="20.4" height="20.4"/>
	
		<rect x="175.1" y="-11.8" transform="matrix(0.7071 0.7071 -0.7071 0.7071 53.1604 -131.4658)" fill="#E6E7E8" width="20.4" height="20.4"/>
	
		<rect x="156" y="3.4" transform="matrix(0.7071 0.7071 -0.7071 0.7071 58.2788 -113.5643)" fill="#06B29E" width="20.4" height="20.4"/>
	
		<rect x="192.8" y="3.3" transform="matrix(0.7071 0.7071 -0.7071 0.7071 69.0341 -139.5731)" fill="#06B29E" width="20.4" height="20.4"/>
	
		<rect x="174.1" y="-14.8" transform="matrix(0.7071 0.7071 -0.7071 0.7071 50.7461 -131.6374)" fill="#06B29E" width="20.4" height="20.4"/>
</g>
</svg>
